<svg width="23" height="20" viewBox="0 0 23 20" fill="none" xmlns="http://www.w3.org/2000/svg">
    <path fill-rule="evenodd" clip-rule="evenodd"
        d="M21.8555 1.44542C21.6978 1.16703 21.3962 1 21.0714 1L1.91369 1.01392C1.52859 1.01392 1.19453 1.25055 1.05997 1.60781C0.962538 1.86764 0.985737 2.14603 1.11565 2.37338C1.16669 2.45689 1.23165 2.53577 1.31052 2.60537L8.69243 8.97116L10.4927 18.5338C10.5623 18.9096 10.8499 19.188 11.2304 19.2483C11.6062 19.3086 11.9774 19.1323 12.1723 18.8029L21.8509 2.35018C22.0179 2.06715 22.0179 1.72381 21.8555 1.44542ZM3.21748 2.39194H18.8164L9.42551 7.75089L3.21748 2.39194ZM11.6248 16.9841L10.1122 8.94796L19.5171 3.58436L11.6248 16.9841Z"
        fill="black" stroke="black" stroke-width="0.7" />
</svg>
